<mxfile host="65bd71144e">
    <diagram name="Page-1" id="hHpF1baUSTz2clY-Ota8">
        <mxGraphModel dx="625" dy="656" grid="0" gridSize="1" guides="1" tooltips="1" connect="1" arrows="1" fold="1" page="1" pageScale="1" pageWidth="1100" pageHeight="850" background="#FFFFFF" math="0" shadow="0">
            <root>
                <mxCell id="0"/>
                <mxCell id="1" parent="0"/>
                <mxCell id="59" style="edgeStyle=orthogonalEdgeStyle;html=1;exitX=0.803;exitY=1.05;exitDx=0;exitDy=0;strokeColor=#000000;exitPerimeter=0;" parent="1" source="AFJ6fUOBSR2v7E0Lf3oa-3" target="53" edge="1">
                    <mxGeometry relative="1" as="geometry"/>
                </mxCell>
                <mxCell id="AFJ6fUOBSR2v7E0Lf3oa-3" value="&lt;p class=&quot;MsoNormal&quot; style=&quot;font-size: 17px;&quot;&gt;Scooter Program External Functions&lt;/p&gt;" style="rounded=1;whiteSpace=wrap;html=1;fillStyle=auto;strokeColor=#000000;fontColor=#000000;fillColor=#ffffff;fontSize=17;fontStyle=1" parent="1" vertex="1">
                    <mxGeometry x="375" y="30" width="350" height="60" as="geometry"/>
                </mxCell>
                <mxCell id="52" style="rounded=0;orthogonalLoop=1;jettySize=auto;html=1;exitX=0.5;exitY=1;exitDx=0;exitDy=0;fontSize=17;fontColor=#000000;startArrow=none;edgeStyle=orthogonalEdgeStyle;startFill=0;endArrow=none;endFill=0;strokeColor=#000000;" parent="1" source="57" target="54" edge="1">
                    <mxGeometry relative="1" as="geometry"/>
                </mxCell>
                <mxCell id="53" value="loadingAnimation()" style="rounded=1;whiteSpace=wrap;html=1;fillStyle=auto;strokeColor=#000000;fontColor=#000000;fillColor=#ffffff;fontSize=13;fontStyle=1" parent="1" vertex="1">
                    <mxGeometry x="592" y="200" width="130" height="40" as="geometry"/>
                </mxCell>
                <mxCell id="54" value="&lt;p class=&quot;MsoNormal&quot;&gt;&lt;/p&gt;void&lt;br&gt;loadingAnimation&lt;br&gt;(int seconds)&lt;span&gt;&lt;br&gt;&lt;/span&gt;" style="rounded=0;whiteSpace=wrap;html=1;fillStyle=auto;strokeColor=#000000;fontSize=11;fontColor=#000000;fillColor=#ffffff;align=left;verticalAlign=top;" parent="1" vertex="1">
                    <mxGeometry x="600" y="320" width="115" height="67" as="geometry"/>
                </mxCell>
                <mxCell id="55" value="" style="endArrow=classic;html=1;rounded=1;strokeWidth=1;fontSize=17;fontColor=#000000;startSize=6;endSize=4;entryX=1.026;entryY=0.435;entryDx=0;entryDy=0;entryPerimeter=0;exitX=-0.109;exitY=0.496;exitDx=0;exitDy=0;exitPerimeter=0;strokeColor=#000000;" parent="1" source="57" target="57" edge="1">
                    <mxGeometry width="50" height="50" relative="1" as="geometry">
                        <mxPoint x="617" y="290" as="sourcePoint"/>
                        <mxPoint x="707" y="270" as="targetPoint"/>
                        <Array as="points">
                            <mxPoint x="637" y="280"/>
                            <mxPoint x="644" y="290"/>
                            <mxPoint x="667" y="290"/>
                            <mxPoint x="677" y="280"/>
                        </Array>
                    </mxGeometry>
                </mxCell>
                <mxCell id="56" value="" style="rounded=0;orthogonalLoop=1;jettySize=auto;html=1;exitX=0.5;exitY=1;exitDx=0;exitDy=0;fontSize=17;fontColor=#000000;endArrow=none;edgeStyle=orthogonalEdgeStyle;startArrow=none;startFill=0;endFill=0;strokeColor=#000000;" parent="1" source="53" target="57" edge="1">
                    <mxGeometry relative="1" as="geometry">
                        <mxPoint x="709" y="240" as="sourcePoint"/>
                        <mxPoint x="718" y="320" as="targetPoint"/>
                    </mxGeometry>
                </mxCell>
                <mxCell id="57" value="" style="html=1;whiteSpace=wrap;aspect=fixed;shape=isoRectangle;fillStyle=auto;strokeColor=#000000;fontSize=17;fontColor=#000000;fillColor=#ffffff;" parent="1" vertex="1">
                    <mxGeometry x="647" y="270" width="20" height="12" as="geometry"/>
                </mxCell>
                <mxCell id="65" style="edgeStyle=orthogonalEdgeStyle;html=1;exitX=0.111;exitY=1;exitDx=0;exitDy=0;entryX=0.5;entryY=0;entryDx=0;entryDy=0;strokeColor=#000000;exitPerimeter=0;" parent="1" source="AFJ6fUOBSR2v7E0Lf3oa-3" target="67" edge="1">
                    <mxGeometry relative="1" as="geometry">
                        <mxPoint x="245" y="45" as="sourcePoint"/>
                    </mxGeometry>
                </mxCell>
                <mxCell id="66" style="rounded=0;orthogonalLoop=1;jettySize=auto;html=1;exitX=0.5;exitY=1;exitDx=0;exitDy=0;fontSize=17;fontColor=#000000;startArrow=none;edgeStyle=orthogonalEdgeStyle;startFill=0;endArrow=none;endFill=0;strokeColor=#000000;" parent="1" source="71" target="68" edge="1">
                    <mxGeometry relative="1" as="geometry"/>
                </mxCell>
                <mxCell id="67" value="Line()" style="rounded=1;whiteSpace=wrap;html=1;fillStyle=auto;strokeColor=#000000;fontColor=#000000;fillColor=#ffffff;fontSize=13;fontStyle=1" parent="1" vertex="1">
                    <mxGeometry x="385" y="200" width="59" height="40" as="geometry"/>
                </mxCell>
                <mxCell id="68" value="&lt;p class=&quot;MsoNormal&quot;&gt;&lt;/p&gt;void Line(int )&lt;span&gt;&lt;br&gt;&lt;/span&gt;" style="rounded=0;whiteSpace=wrap;html=1;fillStyle=auto;strokeColor=#000000;fontSize=11;fontColor=#000000;fillColor=#ffffff;align=left;verticalAlign=top;" parent="1" vertex="1">
                    <mxGeometry x="387.5" y="323" width="53.5" height="63" as="geometry"/>
                </mxCell>
                <mxCell id="69" value="" style="endArrow=classic;html=1;rounded=1;strokeWidth=1;fontSize=17;fontColor=#000000;startSize=6;endSize=4;entryX=1.026;entryY=0.435;entryDx=0;entryDy=0;entryPerimeter=0;exitX=-0.109;exitY=0.496;exitDx=0;exitDy=0;exitPerimeter=0;strokeColor=#000000;" parent="1" source="71" target="71" edge="1">
                    <mxGeometry width="50" height="50" relative="1" as="geometry">
                        <mxPoint x="374.5" y="290" as="sourcePoint"/>
                        <mxPoint x="464.5" y="270" as="targetPoint"/>
                        <Array as="points">
                            <mxPoint x="394.5" y="280"/>
                            <mxPoint x="401.5" y="290"/>
                            <mxPoint x="424.5" y="290"/>
                            <mxPoint x="434.5" y="280"/>
                        </Array>
                    </mxGeometry>
                </mxCell>
                <mxCell id="70" value="" style="rounded=0;orthogonalLoop=1;jettySize=auto;html=1;exitX=0.5;exitY=1;exitDx=0;exitDy=0;fontSize=17;fontColor=#000000;endArrow=none;edgeStyle=orthogonalEdgeStyle;startArrow=none;startFill=0;endFill=0;strokeColor=#000000;" parent="1" source="67" target="71" edge="1">
                    <mxGeometry relative="1" as="geometry">
                        <mxPoint x="499.5" y="240" as="sourcePoint"/>
                        <mxPoint x="508.5" y="320" as="targetPoint"/>
                    </mxGeometry>
                </mxCell>
                <mxCell id="71" value="" style="html=1;whiteSpace=wrap;aspect=fixed;shape=isoRectangle;fillStyle=auto;strokeColor=#000000;fontSize=17;fontColor=#000000;fillColor=#ffffff;" parent="1" vertex="1">
                    <mxGeometry x="404.5" y="270" width="20" height="12" as="geometry"/>
                </mxCell>
                <mxCell id="112" style="edgeStyle=orthogonalEdgeStyle;html=1;strokeColor=#000000;exitX=0.53;exitY=1.006;exitDx=0;exitDy=0;exitPerimeter=0;" parent="1" source="AFJ6fUOBSR2v7E0Lf3oa-3" target="113" edge="1">
                    <mxGeometry relative="1" as="geometry">
                        <mxPoint x="631.2999999999997" y="90.36000000000001" as="sourcePoint"/>
                        <mxPoint x="595.0588235294117" y="200" as="targetPoint"/>
                    </mxGeometry>
                </mxCell>
                <mxCell id="113" value="getControls()" style="rounded=1;whiteSpace=wrap;html=1;fillStyle=auto;strokeColor=#000000;fontColor=#000000;fillColor=#ffffff;fontSize=13;fontStyle=1" parent="1" vertex="1">
                    <mxGeometry x="466" y="200" width="106" height="40" as="geometry"/>
                </mxCell>
                <mxCell id="114" value="&lt;p class=&quot;MsoNormal&quot;&gt;&lt;/p&gt;int getControls(Scooter *scooter)" style="rounded=0;whiteSpace=wrap;html=1;fillStyle=auto;strokeColor=#000000;fontSize=11;fontColor=#000000;fillColor=#ffffff;align=left;verticalAlign=top;" parent="1" vertex="1">
                    <mxGeometry x="464" y="320" width="107" height="66" as="geometry"/>
                </mxCell>
                <mxCell id="115" style="rounded=0;orthogonalLoop=1;jettySize=auto;html=1;exitX=0.5;exitY=1;exitDx=0;exitDy=0;fontSize=17;fontColor=#000000;startArrow=none;edgeStyle=orthogonalEdgeStyle;startFill=0;endArrow=none;endFill=0;strokeColor=#000000;" parent="1" source="118" edge="1">
                    <mxGeometry relative="1" as="geometry">
                        <mxPoint x="520.4705882352944" y="321" as="targetPoint"/>
                    </mxGeometry>
                </mxCell>
                <mxCell id="116" value="" style="endArrow=classic;html=1;rounded=1;strokeWidth=1;fontSize=17;fontColor=#000000;startSize=6;endSize=4;entryX=1.026;entryY=0.435;entryDx=0;entryDy=0;entryPerimeter=0;exitX=-0.109;exitY=0.496;exitDx=0;exitDy=0;exitPerimeter=0;strokeColor=#000000;" parent="1" source="118" target="118" edge="1">
                    <mxGeometry width="50" height="50" relative="1" as="geometry">
                        <mxPoint x="480" y="291" as="sourcePoint"/>
                        <mxPoint x="570" y="271" as="targetPoint"/>
                        <Array as="points">
                            <mxPoint x="500" y="281"/>
                            <mxPoint x="507" y="291"/>
                            <mxPoint x="530" y="291"/>
                            <mxPoint x="540" y="281"/>
                        </Array>
                    </mxGeometry>
                </mxCell>
                <mxCell id="117" value="" style="rounded=0;orthogonalLoop=1;jettySize=auto;html=1;exitX=0.5;exitY=1;exitDx=0;exitDy=0;fontSize=17;fontColor=#000000;endArrow=none;edgeStyle=orthogonalEdgeStyle;startArrow=none;startFill=0;endFill=0;strokeColor=#000000;" parent="1" target="118" edge="1">
                    <mxGeometry relative="1" as="geometry">
                        <mxPoint x="520" y="241" as="sourcePoint"/>
                        <mxPoint x="581" y="321" as="targetPoint"/>
                    </mxGeometry>
                </mxCell>
                <mxCell id="118" value="" style="html=1;whiteSpace=wrap;aspect=fixed;shape=isoRectangle;fillStyle=auto;strokeColor=#000000;fontSize=17;fontColor=#000000;fillColor=#ffffff;" parent="1" vertex="1">
                    <mxGeometry x="510" y="271" width="20" height="12" as="geometry"/>
                </mxCell>
            </root>
        </mxGraphModel>
    </diagram>
</mxfile>